<?xml version="1.0" encoding="UTF-8"?>
<svg width="32" height="32" data-name="Layer 1" version="1.1" viewBox="0 0 32 32" xmlns="http://www.w3.org/2000/svg" xmlns:cc="http://creativecommons.org/ns#" xmlns:dc="http://purl.org/dc/elements/1.1/" xmlns:rdf="http://www.w3.org/1999/02/22-rdf-syntax-ns#">
 <title>Image, Picture, Gallery, Photo, Collection</title>
 <g fill="#fff">
  <path d="m2.4181 18.932-0.88153-2.6572c-0.15261-0.47904-0.11194-0.99876 0.11334-1.4482 0.22542-0.44773 0.61956-0.78751 1.0956-0.9445l10.376-3.6535c1.0084-0.31165 2.0787 0.2517 2.3927 1.2593l2.5187 7.6819-3.3372-1.2593c-0.30284-0.11333-0.64271 0.01615-0.79338 0.30224l-2.8713 5.6922-2.6194-1.2593c-0.25747-0.12309-0.56528-0.061529-0.7556 0.15112l-3.0217 2.8349-1.3349-4.1054zm13.599-11.504 2.2046-4.1762c0.48035-0.90871 1.5959-1.2713 2.5187-0.81856l8.9412 4.6343c0.44898 0.23275 0.785 0.63688 0.9319 1.1208 0.15189 0.4749 0.11119 0.99045-0.11334 1.4356l-3.778 7.1908-1.3979-3.2994c-0.12273-0.30199-0.45918-0.45643-0.76819-0.35261l-6.5233 2.0779-1.423-4.2565c-0.26042-0.79413-0.82707-1.4514-1.5742-1.826-0.74599-0.37996-1.6147-0.43909-2.4053-0.16371l-10.275 3.6283c-0.79626 0.25664-1.4549 0.82441-1.826 1.5742-0.39061 0.74691-0.45443 1.6222-0.17631 2.4179l0.86894 2.7201 0.89412 2.5942 2.6068 7.8204c0.26042 0.79413 0.82707 1.4514 1.5742 1.826 0.43924 0.21468 0.92155 0.32664 1.4104 0.32743 0.33841 1e-3 0.67464-0.05428 0.99487-0.16371l10.364-3.6409c0.79626-0.25664 1.4549-0.82441 1.826-1.5742 0.39061-0.74691 0.45443-1.6222 0.17631-2.4179l-0.10074-0.30224h0.06297c1.544 0.79997 3.4442 0.19665 4.2439-1.3475l6.3722-12.291c0.79997-1.544 0.19665-3.4442-1.3475-4.2439l-8.9412-4.6343c-1.544-0.79997-3.4442-0.19665-4.2439 1.3475l-2.2046 4.2139m9.5717 7.6741 1.5742 3.778-1.889 3.6395c-0.48035 0.90871-1.5959 1.2713-2.5187 0.81856l-1.2593-0.62966-1.889-5.6796zm-4.7099 11.435c-0.22542 0.44773-0.61956 0.78751-1.0956 0.9445l-10.376 3.6535c-0.97969 0.33024-2.0446-0.17712-2.4053-1.146l-0.7556-2.4053 3.1477-3.0994 2.7453 1.3727c0.1533 0.06298 0.32524 0.06298 0.47854 0 0.16013-0.04975 0.29241-0.16378 0.3652-0.31483l2.9342-5.8559 3.778 1.4734 0.71782 2.1409 0.60448 1.7882c0.14485 0.4823 0.09513 1.0021-0.13853 1.4482z" stroke-width="1.2593"/>
  <path d="m8.4285 2.461h0.61539v0.61539a0.61539 0.61539 0 0 0 1.2308 0v-0.61539h0.61539a0.61539 0.61539 0 0 0 0-1.2308h-0.61539v-0.61539a0.61539 0.61539 0 0 0-1.2308 0v0.61539h-0.61539a0.61539 0.61539 0 0 0 0 1.2308z" stroke-width="1.2308"/>
  <path d="m24.429 29.538h-0.61539v-0.61539a0.61539 0.61539 0 0 0-1.2308 0v0.61539h-0.61539a0.61539 0.61539 0 0 0 0 1.2308h0.61539v0.61539a0.61539 0.61539 0 0 0 1.2308 0v-0.61539h0.61539a0.61539 0.61539 0 0 0 0-1.2308z" stroke-width="1.2308"/>
  <path d="m3.6591 7.6918a2 2 0 1 0-2-2 2 2 0 0 0 2 2zm0-3a1 1 0 1 1-1 1 1 1 0 0 1 1-1z"/>
  <path d="m29 23a2 2 0 1 0 2 2 2 2 0 0 0-2-2zm0 3a1 1 0 1 1 1-1 1 1 0 0 1-1 1z"/>
 </g>
 <metadata>
  <rdf:RDF>
   <cc:Work rdf:about="">
    <dc:title>Image, Picture, Gallery, Photo, Collection</dc:title>
   </cc:Work>
  </rdf:RDF>
 </metadata>
 <circle cx="6.0883" cy="17.303" r="1.875" fill="#fff" stroke-width=".9375"/>
 <circle cx="20.641" cy="8.0821" r="1.875" fill="#fff" stroke-width=".9375"/>
</svg>
