<?xml version="1.0" encoding="UTF-8" standalone="no"?>
<!-- Created with Inkscape (http://www.inkscape.org/) -->

<svg
   width="32"
   height="32"
   viewBox="0 0 8.4666665 8.4666665"
   version="1.1"
   id="svg5"
   xml:space="preserve"
   inkscape:version="1.2.2 (732a01da63, 2022-12-09)"
   sodipodi:docname="face.svg"
   xmlns:inkscape="http://www.inkscape.org/namespaces/inkscape"
   xmlns:sodipodi="http://sodipodi.sourceforge.net/DTD/sodipodi-0.dtd"
   xmlns="http://www.w3.org/2000/svg"
   xmlns:svg="http://www.w3.org/2000/svg"><sodipodi:namedview
     id="namedview7"
     pagecolor="#ffffff"
     bordercolor="#000000"
     borderopacity="0.25"
     inkscape:showpageshadow="2"
     inkscape:pageopacity="0.0"
     inkscape:pagecheckerboard="true"
     inkscape:deskcolor="#d1d1d1"
     inkscape:document-units="px"
     showgrid="false"
     inkscape:zoom="10.099009"
     inkscape:cx="26.735298"
     inkscape:cy="43.568633"
     inkscape:window-width="1350"
     inkscape:window-height="1205"
     inkscape:window-x="3515"
     inkscape:window-y="130"
     inkscape:window-maximized="0"
     inkscape:current-layer="layer1" /><defs
     id="defs2" /><g
     inkscape:label="Layer 1"
     inkscape:groupmode="layer"
     id="layer1"><g
       id="g5035"
       transform="matrix(0.0831076,0,0,0.08310623,0.07795347,0.08344577)"
       style="fill:#ffffff;fill-opacity:1;stroke:#ffffff;stroke-width:1.27346;stroke-dasharray:none;stroke-opacity:1"><g
         data-name="Layer 2"
         id="g5015"
         style="fill:#ffffff;fill-opacity:1;stroke:#ffffff;stroke-width:1.27347;stroke-dasharray:none;stroke-opacity:1"><path
           d="m 81.277,9 h 9.657 v 9.656 a 1.5,1.5 0 1 0 3,0 V 7.5 A 1.5,1.5 0 0 0 92.434,6 H 81.277 a 1.5,1.5 0 0 0 0,3 z"
           id="path5005"
           style="fill:#ffffff;fill-opacity:1;stroke:#ffffff;stroke-width:1.27347;stroke-dasharray:none;stroke-opacity:1" /><path
           d="m 7.566,20.156 a 1.5,1.5 0 0 0 1.5,-1.5 V 9 h 9.657 a 1.5,1.5 0 0 0 0,-3 H 7.566 a 1.5,1.5 0 0 0 -1.5,1.5 v 11.156 a 1.5,1.5 0 0 0 1.5,1.5 z"
           id="path5007"
           style="fill:#ffffff;fill-opacity:1;stroke:#ffffff;stroke-width:1.27347;stroke-dasharray:none;stroke-opacity:1" /><path
           d="m 81.277,94 h 11.157 a 1.5,1.5 0 0 0 1.5,-1.5 V 81.344 a 1.5,1.5 0 0 0 -3,0 V 91 h -9.657 a 1.5,1.5 0 1 0 0,3 z"
           id="path5009"
           style="fill:#ffffff;fill-opacity:1;stroke:#ffffff;stroke-width:1.27347;stroke-dasharray:none;stroke-opacity:1" /><path
           d="m 7.566,94 h 11.157 a 1.5,1.5 0 0 0 0,-3 H 9.066 v -9.656 a 1.5,1.5 0 0 0 -3,0 V 92.5 a 1.5,1.5 0 0 0 1.5,1.5 z"
           id="path5011"
           style="fill:#ffffff;fill-opacity:1;stroke:#ffffff;stroke-width:1.27347;stroke-dasharray:none;stroke-opacity:1" /><path
           d="m 25.661,83.375 a 1.477,1.477 0 0 0 0.293,-0.029 c 4.661,-0.923 9.273,-3.617 12.321,-5.714 a 6.327,6.327 0 0 0 2.73,-5.216 v -4.969 a 15.955,15.955 0 0 0 3.036,1.493 1.5,1.5 0 1 0 1.027,-2.818 C 30.968,60.984 32.75,34.044 32.768,33.738 33.455,19.829 49.327,19.627 50,19.625 c 0.673,-0.002 16.547,0.2 17.232,14.148 0.02,0.271 1.8,27.211 -12.3,32.349 A 1.5,1.5 0 1 0 55.959,68.94 15.955,15.955 0 0 0 59,67.447 v 4.969 a 6.327,6.327 0 0 0 2.73,5.216 c 3.048,2.1 7.66,4.791 12.321,5.714 a 1.477,1.477 0 0 0 0.293,0.029 1.5,1.5 0 0 0 0.29,-2.971 c -4.378,-0.867 -8.9,-3.658 -11.2,-5.244 A 3.323,3.323 0 0 1 62,72.416 V 65.032 C 71.67,55.294 70.3,34.584 70.23,33.59 69.4,16.819 50.194,16.625 50,16.625 c -0.194,0 -19.4,0.194 -20.223,16.93 -0.075,1.024 -1.442,21.738 8.228,31.477 v 7.384 a 3.325,3.325 0 0 1 -1.43,2.744 c -2.3,1.586 -6.826,4.377 -11.2,5.244 a 1.5,1.5 0 0 0 0.29,2.971 z"
           id="path5013"
           style="fill:#ffffff;fill-opacity:1;stroke:#ffffff;stroke-width:1.27347;stroke-dasharray:none;stroke-opacity:1" /></g></g></g></svg>
