<svg width="64" height="64" viewBox="0 0 64 64" fill="none" xmlns="http://www.w3.org/2000/svg">
<path d="M38.107 8.93457L32.707 14.3346" stroke="#0066FF" stroke-width="4" stroke-linecap="round"/>
<path d="M17.3329 8.93457L22.7329 14.3346" stroke="#0066FF" stroke-width="4" stroke-linecap="round"/>
<path d="M14.6667 32.9329C12.5964 30.3455 7.2236 27.1269 8.10699 23.9332C8.50696 22.4871 10.6667 20.5603 12.6667 22.0001C14.6667 23.4398 23.7071 34.1332 25.5072 32.9325C31.3496 29.0356 46 8.6663 49.9999 7.9996C52.2558 7.62359 54.9071 10.6663 53.7071 12.5332C51.0503 16.6663 39.8654 26.1492 42 27.9997C43.538 29.333 46.8783 23.9997 48.6667 26.6663C50.455 29.333 44.7593 31.5084 46 32.9329C47.0882 34.1823 51.3333 29.9997 52.6667 31.9997C54 33.9997 48.6324 37.3843 49.9999 38.6663C51.0397 39.6411 54.9922 35.6585 56 36.6663C59.3333 39.9997 47.7556 50.107 40.5072 55.1324C37.3333 57.333 35.065 58.404 31.3333 57.9997C25.4767 57.3651 23.5056 52.0092 20.6667 47.3334C17.4747 42.0761 19.4667 38.9323 14.6667 32.9329Z" stroke="#0066FF" stroke-width="4" stroke-linecap="round"/>
<path d="M27.9067 5.33398V13.134" stroke="#0066FF" stroke-width="4" stroke-linecap="round"/>
</svg>
